<svg width="1326" height="502" viewBox="0 0 1326 502" fill="none" xmlns="http://www.w3.org/2000/svg">
<path d="M1151.62 288.5C1151.62 302.583 1149.29 314.625 1144.62 324.625C1139.96 334.542 1132.62 342.125 1122.62 347.375C1112.71 352.625 1099.75 355.25 1083.75 355.25C1067.58 355.25 1054.5 352.583 1044.5 347.25C1034.58 341.917 1027.33 334.125 1022.75 323.875C1018.25 313.625 1016 301.125 1016 286.375V172H1043.62V289.75C1043.62 304.083 1047.13 314.75 1054.13 321.75C1061.21 328.667 1071.08 332.125 1083.75 332.125C1092.17 332.125 1099.42 330.625 1105.5 327.625C1111.67 324.542 1116.38 319.875 1119.63 313.625C1122.88 307.292 1124.5 299.333 1124.5 289.75V172H1151.62V288.5Z" fill="black"/>
<path d="M1172.76 172H1199.51V352.75H1172.76V172Z" fill="black"/>
<path d="M533.233 358C519.606 358 507.989 355.414 498.389 350.244C488.942 345.073 480.813 338.125 474 329.399L492.118 311.705C497.848 318.976 504.12 324.47 510.933 328.187C517.902 331.903 525.798 333.762 534.624 333.762C545.002 333.762 552.822 331.338 558.087 326.49C563.352 321.643 565.983 315.098 565.983 306.857C565.983 300.232 564.126 294.981 560.409 291.103C556.692 287.224 550.111 284.316 540.664 282.377L526.263 279.711C510.468 276.64 498.622 271.227 490.722 263.471C482.826 255.715 478.876 245.05 478.876 231.476C478.876 224.043 480.192 217.337 482.826 211.359C485.613 205.218 489.407 200.128 494.207 196.089C499.163 191.887 505.126 188.656 512.095 186.393C519.061 184.131 526.884 183 535.555 183C547.789 183 558.396 185.262 567.378 189.787C576.361 194.15 584.024 200.532 590.376 208.935L572.022 225.901C567.843 220.246 562.731 215.722 556.692 212.328C550.652 208.935 543.142 207.238 534.163 207.238C524.871 207.238 517.67 209.177 512.557 213.055C507.448 216.933 504.894 222.589 504.894 230.022C504.894 237.132 506.983 242.464 511.165 246.019C515.348 249.413 521.848 251.998 530.678 253.776L545.078 256.926C561.339 260.158 573.185 265.652 580.619 273.409C588.206 281.165 592 291.83 592 305.403C592 313.321 590.685 320.511 588.05 326.975C585.419 333.439 581.546 339.013 576.437 343.7C571.481 348.224 565.365 351.779 558.087 354.364C550.809 356.788 542.524 358 533.233 358Z" fill="black"/>
<path d="M653.049 357C644.5 357 636.866 355.475 630.148 352.425C623.43 349.374 617.781 345.04 613.198 339.421C608.62 333.642 605.108 326.738 602.665 318.711C600.222 310.524 599 301.453 599 291.5C599 281.546 600.222 272.556 602.665 264.529C605.108 256.342 608.62 249.439 613.198 243.82C617.781 238.04 623.43 233.626 630.148 230.575C636.866 227.525 644.5 226 653.049 226C664.958 226 674.731 228.809 682.366 234.428C690.001 240.047 695.572 247.512 699.083 256.824L678.472 266.938C676.791 261.158 673.814 256.582 669.54 253.211C665.416 249.679 659.92 247.913 653.049 247.913C643.888 247.913 636.941 250.964 632.208 257.064C627.629 263.004 625.337 270.79 625.337 280.423V302.818C625.337 312.45 627.629 320.317 632.208 326.417C636.941 332.357 643.888 335.327 653.049 335.327C660.379 335.327 666.179 333.481 670.457 329.789C674.885 325.936 678.396 320.879 680.99 314.618L700 325.213C696.03 335.488 690.076 343.354 682.137 348.812C674.197 354.271 664.502 357 653.049 357Z" fill="black"/>
<path d="M804.892 354.11C798.265 354.11 793.175 352.184 789.63 348.331C786.085 344.317 783.926 339.26 783.155 333.16H782.001C779.686 341.026 775.447 346.966 769.282 350.98C763.115 354.993 755.638 357 746.851 357C734.364 357 724.727 353.629 717.944 346.886C711.317 340.143 708 331.073 708 319.675C708 307.153 712.319 297.761 720.95 291.5C729.737 285.239 742.535 282.108 759.338 282.108H781.075V271.513C781.075 263.807 779.071 257.867 775.063 253.693C771.055 249.519 764.811 247.432 756.332 247.432C749.238 247.432 743.458 249.037 738.987 252.248C734.516 255.459 730.739 259.553 727.657 264.529L712.627 250.322C716.635 243.258 722.26 237.478 729.505 232.983C736.751 228.328 746.232 226 757.949 226C773.522 226 785.467 229.773 793.794 237.318C802.118 244.863 806.281 255.699 806.281 269.827V332.678H819V354.11H804.892ZM754.021 337.013C761.881 337.013 768.356 335.247 773.442 331.715C778.532 328.023 781.075 323.126 781.075 317.026V298.965H759.801C742.38 298.965 733.669 304.584 733.669 315.822V320.156C733.669 325.775 735.442 330.029 738.987 332.919C742.687 335.648 747.697 337.013 754.021 337.013Z" fill="black"/>
<path d="M851.759 355C843.094 355 836.596 352.742 832.266 348.227C828.087 343.551 826 337.1 826 328.876V176H851.294V333.472H868V355H851.759Z" fill="black"/>
<path d="M930.918 357C922.338 357 914.678 355.475 907.938 352.425C901.198 349.374 895.454 345.04 890.706 339.421C885.957 333.642 882.28 326.738 879.674 318.711C877.222 310.524 876 301.453 876 291.5C876 281.546 877.222 272.556 879.674 264.529C882.28 256.342 885.957 249.439 890.706 243.82C895.454 238.04 901.198 233.626 907.938 230.575C914.678 227.525 922.338 226 930.918 226C939.65 226 947.31 227.605 953.895 230.816C960.639 234.027 966.228 238.522 970.671 244.301C975.114 249.92 978.407 256.502 980.553 264.048C982.85 271.593 984 279.7 984 288.369V298.243H901.964V302.336C901.964 311.969 904.646 319.915 910.009 326.176C915.523 332.277 923.334 335.327 933.446 335.327C940.8 335.327 947.004 333.642 952.058 330.27C957.112 326.899 961.404 322.324 964.927 316.544L979.633 331.715C975.19 339.421 968.755 345.602 960.33 350.257C951.904 354.753 942.101 357 930.918 357ZM930.918 246.469C926.63 246.469 922.644 247.271 918.97 248.877C915.444 250.482 912.381 252.73 909.779 255.619C907.327 258.509 905.411 261.961 904.031 265.974C902.654 269.988 901.964 274.403 901.964 279.219V280.904H957.573V278.496C957.573 268.864 955.2 261.158 950.448 255.379C945.7 249.439 939.19 246.469 930.918 246.469Z" fill="black"/>
<path d="M336.385 144H227V358H442V245.559H419.369V336.237H249.631V165.763H336.385V144Z" fill="black"/>
<path d="M362.883 165.767H403.412L302.604 262.842V223.814H280V300H359.115V278.233H318.59L419.396 181.161V220.186H442V144H362.883V165.767Z" fill="black"/>
</svg>
